<?xml version="1.0" encoding="UTF-8"?>
<svg xmlns="http://www.w3.org/2000/svg" xmlns:xlink="http://www.w3.org/1999/xlink" width="17pt" height="17pt" viewBox="0 0 17 17" version="1.1">
<g id="surface1">
<path style=" stroke:none;fill-rule:nonzero;fill:rgb(0%,0%,0%);fill-opacity:1;" d="M 16.851562 16.132812 L 12.71875 12 C 13.828125 10.726562 14.5 9.066406 14.5 7.25 C 14.5 3.25 11.246094 0 7.25 0 C 3.25 0 0 3.253906 0 7.25 C 0 11.242188 3.253906 14.496094 7.25 14.496094 C 9.066406 14.496094 10.730469 13.824219 12.003906 12.71875 L 16.136719 16.847656 C 16.234375 16.945312 16.363281 17 16.492188 17 C 16.621094 17 16.753906 16.949219 16.851562 16.847656 C 17.046875 16.652344 17.046875 16.328125 16.851562 16.132812 Z M 1.015625 7.25 C 1.015625 3.8125 3.8125 1.019531 7.246094 1.019531 C 10.683594 1.019531 13.476562 3.816406 13.476562 7.25 C 13.476562 10.683594 10.683594 13.484375 7.246094 13.484375 C 3.8125 13.484375 1.015625 10.6875 1.015625 7.25 Z M 1.015625 7.25 "/>
</g>
</svg>
