<svg xmlns="http://www.w3.org/2000/svg" data-name="Warstwa 1" viewBox="0 0 73.12 8.81"><path d="M0 .2h3a3 3 0 011.22.24 2.71 2.71 0 01.94.64 2.9 2.9 0 01.6.94 3.14 3.14 0 01.09 2 2.59 2.59 0 01-.36.77 2.83 2.83 0 01-.56.64 2.67 2.67 0 01-.74.45l1.67 2.73H4.29L2.75 6.09H1.37v2.55H-.01zm3 4.65a1.59 1.59 0 00.66-.14 1.67 1.67 0 00.5-.37 1.9 1.9 0 00.43-1.2 1.75 1.75 0 00-.12-.65 1.81 1.81 0 00-.31-.54 1.52 1.52 0 00-.5-.37A1.59 1.59 0 003 1.44H1.37v3.41zM16.92.2l.36 1.07h3.16L20.8.2h1.45l-2.9 8.4h-1L15.45.2zm1.93 6.11l1.17-3.8H17.7zm18.34-3.67l-1.94 6h-1l-2.9-8.4h1.45l1.93 6 1.94-6h1l1.95 6 1.93-6H43l-2.89 8.4h-1zM52.96.2h1.43v8.44h-1.43zm20.15 5.7a3.61 3.61 0 01-.49 1.14 3.84 3.84 0 01-.87.93 4.07 4.07 0 01-1.19.62 4.72 4.72 0 01-1.44.22 4.51 4.51 0 01-1.84-.36 4.09 4.09 0 01-1.39-1 4.32 4.32 0 01-.88-1.4 4.85 4.85 0 010-3.33 4.39 4.39 0 01.85-1.41 4.28 4.28 0 011.35-1 4.08 4.08 0 011.78-.37 5 5 0 011.66.26 3.8 3.8 0 011.24.69 3.47 3.47 0 01.83 1 4.19 4.19 0 01.4 1.27h-1.45a2.56 2.56 0 00-.29-.8 2.32 2.32 0 00-.52-.64 2.62 2.62 0 00-.75-.43 2.81 2.81 0 00-.94-.15 3 3 0 00-1.29.26 2.83 2.83 0 00-.95.7 2.92 2.92 0 00-.59 1 3.37 3.37 0 00-.21 1.18 3.61 3.61 0 00.21 1.23 3 3 0 00.62 1 2.84 2.84 0 001 .69 3.44 3.44 0 001.36.25 2.33 2.33 0 00.73-.12 2.92 2.92 0 00.68-.35 2.47 2.47 0 00.54-.53 2.15 2.15 0 00.35-.67z"/></svg>