<svg xmlns="http://www.w3.org/2000/svg" xmlns:xlink="http://www.w3.org/1999/xlink" xmlns:fi="http://pattern.flaticon.com/" x="0" y="0" width="700" height="350" viewBox="0 0 1008.2304526748972 504.1152263374486"><rect x="0px" y="0px" width="100%" height="100%" opacity="1" fill="#ffffff"/><defs><path d="M251.093,37.38c-2.235-3.859-6.357-6.235-10.816-6.235s-8.582,2.376-10.816,6.235L1.684,430.645   c-2.24,3.867-2.245,8.636-0.013,12.507s6.361,6.257,10.83,6.257h455.553c4.469,0,8.598-2.386,10.83-6.257   c2.231-3.871,2.227-8.641-0.014-12.507L251.093,37.38z M34.186,424.409L240.276,68.585l206.091,355.824H34.186L34.186,424.409z" transform="matrix(0.04083767912463742 0.025130879203260015 -0.025130879203260015 0.04083767912463742 158.20274156618774 171.15624079310763)" id="L1_407" fill="#34b9f5"/><path d="M255,0C114.75,0,0,114.75,0,255s114.75,255,255,255s255-114.75,255-255S395.25,0,255,0z M382.5,280.5h-102v102h-51v-102    h-102v-51h102v-102h51v102h102V280.5z" transform="matrix(0.04436748331901691 -0.016637806520774248 0.016637806520774248 0.04436748331901691 264.443651202612 103.92893252820683)" id="L1_408" fill="#f5685d"/><path d="M465.167,211.613H240.21H26.69c-8.424,0-26.69,11.439-26.69,34.316s18.267,34.316,26.69,34.316h213.52h224.959    c8.421,0,26.689-11.439,26.689-34.316S473.59,211.613,465.167,211.613z" transform="matrix(0.036306901989561116 0.012102300060919306 -0.012102300060919306 0.036306901989561116 312.0106298183332 243.09996488589397)" id="L1_409"/><path d="M28.647,22.323c-3.895,3.895-10.23,3.895-14.125,0c-3.895-3.894-3.895-10.229,0-14.123L6.324,0    c-8.431,8.43-8.431,22.095,0,30.524c8.428,8.43,22.094,8.43,30.522,0L28.647,22.323z" transform="matrix(0.8249579156797934 0.15713484220915733 -0.15713484220915733 0.8249579156797934 109.28957729570787 35.63272297617821)" fill="#030104" id="L1_410"/><g transform="matrix(0.041540541398453985 0.012781705703075465 -0.012781705703075465 0.041540541398453985 13.637738061983098 18.093504742008463)" id="L1_411"><path d="M6.979,271.181c30.288,25.979,64.616,55.426,131.017,55.426c66.403-0.001,100.733-29.447,131.022-55.426     c28.644-24.568,53.382-45.787,104.98-45.787c51.599,0,76.337,21.219,104.98,45.787c8.385,7.191,21.011,6.225,28.202-2.159     c7.191-8.385,6.225-21.011-2.16-28.202c-30.289-25.979-64.619-55.426-131.022-55.426S273.265,214.84,242.976,240.82     c-28.644,24.568-53.382,45.787-104.98,45.787c-51.597,0-76.332-21.218-104.974-45.787c-8.384-7.191-21.01-6.226-28.202,2.159     C-2.372,251.363-1.405,263.99,6.979,271.181z"/><path d="M6.979,161.787c30.287,25.98,64.615,55.426,131.017,55.426c66.403,0,100.733-29.446,131.022-55.426     C297.662,137.219,322.399,116,373.998,116c51.597,0,76.335,21.218,104.98,45.787c8.385,7.193,21.01,6.224,28.201-2.161     c7.192-8.384,6.223-21.012-2.161-28.202C474.729,105.444,440.399,76,373.998,76c-66.403,0-100.733,29.446-131.022,55.426     c-28.644,24.568-53.382,45.787-104.98,45.787c-51.596,0-76.332-21.218-104.974-45.787c-8.384-7.192-21.011-6.226-28.202,2.159     C-2.372,141.969-1.405,154.596,6.979,161.787z"/><path d="M505.02,350.213c-30.289-25.979-64.619-55.426-131.022-55.426s-100.733,29.446-131.022,55.426     C214.332,374.781,189.594,396,137.996,396c-51.594,0-76.331-21.218-104.973-45.785l-0.002-0.002     c-8.384-7.189-21.009-6.223-28.201,2.16c-7.191,8.384-6.224,21.011,2.16,28.202C37.268,406.555,71.597,436,137.996,436     c66.403,0,100.733-29.446,131.022-55.426c28.644-24.568,53.382-45.787,104.98-45.787c51.599,0,76.337,21.219,104.98,45.787     c8.385,7.191,21.011,6.225,28.202-2.159C514.371,370.03,513.405,357.404,505.02,350.213z"/></g></defs><g fi:class="KUsePattern" opacity="1"><pattern id="pattern_L1_407" width="350" height="350" patternUnits="userSpaceOnUse"><use xlink:href="#L1_407" x="-350" y="-350"/><use xlink:href="#L1_407" x="0" y="-350"/><use xlink:href="#L1_407" x="350" y="-350"/><use xlink:href="#L1_407" x="-350" y="0"/><use xlink:href="#L1_407" x="0" y="0"/><use xlink:href="#L1_407" x="350" y="0"/><use xlink:href="#L1_407" x="-350" y="350"/><use xlink:href="#L1_407" x="0" y="350"/><use xlink:href="#L1_407" x="350" y="350"/></pattern><rect x="0" y="0" width="100%" height="100%" fill="url(#pattern_L1_407)"/></g><g fi:class="KUsePattern"><pattern id="pattern_L1_408" width="350" height="350" patternUnits="userSpaceOnUse"><use xlink:href="#L1_408" x="-350" y="-350"/><use xlink:href="#L1_408" x="0" y="-350"/><use xlink:href="#L1_408" x="350" y="-350"/><use xlink:href="#L1_408" x="-350" y="0"/><use xlink:href="#L1_408" x="0" y="0"/><use xlink:href="#L1_408" x="350" y="0"/><use xlink:href="#L1_408" x="-350" y="350"/><use xlink:href="#L1_408" x="0" y="350"/><use xlink:href="#L1_408" x="350" y="350"/></pattern><rect x="0" y="0" width="100%" height="100%" fill="url(#pattern_L1_408)"/></g><g fi:class="KUsePattern" opacity="0.38"><pattern id="pattern_L1_409" width="350" height="350" patternUnits="userSpaceOnUse"><use xlink:href="#L1_409" x="-350" y="-350"/><use xlink:href="#L1_409" x="0" y="-350"/><use xlink:href="#L1_409" x="350" y="-350"/><use xlink:href="#L1_409" x="-350" y="0"/><use xlink:href="#L1_409" x="0" y="0"/><use xlink:href="#L1_409" x="350" y="0"/><use xlink:href="#L1_409" x="-350" y="350"/><use xlink:href="#L1_409" x="0" y="350"/><use xlink:href="#L1_409" x="350" y="350"/></pattern><rect x="0" y="0" width="100%" height="100%" fill="url(#pattern_L1_409)"/></g><g fi:class="KUsePattern" opacity="0.09"><pattern id="pattern_L1_410" width="350" height="350" patternUnits="userSpaceOnUse"><use xlink:href="#L1_410" x="-350" y="-350"/><use xlink:href="#L1_410" x="0" y="-350"/><use xlink:href="#L1_410" x="350" y="-350"/><use xlink:href="#L1_410" x="-350" y="0"/><use xlink:href="#L1_410" x="0" y="0"/><use xlink:href="#L1_410" x="350" y="0"/><use xlink:href="#L1_410" x="-350" y="350"/><use xlink:href="#L1_410" x="0" y="350"/><use xlink:href="#L1_410" x="350" y="350"/></pattern><rect x="0" y="0" width="100%" height="100%" fill="url(#pattern_L1_410)"/></g><g fi:class="KUsePattern"><pattern id="pattern_L1_411" width="350" height="350" patternUnits="userSpaceOnUse"><use xlink:href="#L1_411" x="-350" y="-350"/><use xlink:href="#L1_411" x="0" y="-350"/><use xlink:href="#L1_411" x="350" y="-350"/><use xlink:href="#L1_411" x="-350" y="0"/><use xlink:href="#L1_411" x="0" y="0"/><use xlink:href="#L1_411" x="350" y="0"/><use xlink:href="#L1_411" x="-350" y="350"/><use xlink:href="#L1_411" x="0" y="350"/><use xlink:href="#L1_411" x="350" y="350"/></pattern><rect x="0" y="0" width="100%" height="100%" fill="url(#pattern_L1_411)"/></g></svg>